<svg xmlns="http://www.w3.org/2000/svg" xmlns:xlink="http://www.w3.org/1999/xlink" width="1920" zoomAndPan="magnify" viewBox="0 0 1440 809.999993" height="1080" preserveAspectRatio="xMidYMid meet" version="1.2"><defs><clipPath id="ef7402a0a9"><path d="M 555 217.050781 L 829 217.050781 L 829 592 L 555 592 Z M 555 217.050781 "/></clipPath><clipPath id="5a0ba02279"><path d="M 757 564 L 831.539062 564 L 831.539062 587 L 757 587 Z M 757 564 "/></clipPath><clipPath id="8a52ac9cad"><path d="M 783 273.679688 L 861 273.679688 L 861 367 L 783 367 Z M 783 273.679688 "/></clipPath><clipPath id="ee41e0d3fe"><path d="M 826.273438 288.449219 C 807.226562 285.898438 801.074219 284.773438 798.898438 286.273438 C 797.550781 287.25 797.773438 288.675781 797.175781 290.773438 C 795.898438 295.199219 793.800781 304.648438 793.050781 311.851562 C 792.300781 319.273438 792 329.773438 792.75 334.574219 C 793.125 336.898438 793.351562 337.726562 794.398438 339.523438 C 795.976562 342.449219 800.101562 346.800781 802.800781 349.351562 C 804.976562 351.300781 807.226562 352.800781 809.175781 354 C 810.75 354.976562 812.175781 355.726562 813.75 356.25 C 815.175781 356.773438 816.75 357.074219 818.324219 357.148438 C 819.976562 357.300781 821.699219 357.449219 823.425781 357.074219 C 825.226562 356.550781 826.875 355.648438 828.824219 354.300781 C 831.375 352.574219 834.523438 349.726562 837 346.949219 C 839.550781 344.101562 841.726562 341.175781 843.898438 337.574219 C 846.449219 333.148438 849.75 326.101562 850.800781 322.125 C 851.476562 319.800781 851.625 318.226562 851.398438 316.425781 C 851.25 314.625 850.800781 313.125 849.824219 311.25 C 848.324219 308.625 845.773438 305.476562 842.476562 302.398438 C 837.449219 297.75 825.976562 290.550781 821.550781 287.773438 C 819.675781 286.574219 819 286.199219 817.273438 285.375 C 814.800781 284.324219 809.851562 283.949219 808.125 282.300781 C 806.925781 281.175781 806.324219 279.375 806.476562 278.101562 C 806.625 276.75 807.824219 274.949219 809.023438 274.351562 C 810.226562 273.675781 812.398438 273.675781 813.601562 274.351562 C 814.800781 274.949219 816 276.75 816.148438 278.101562 C 816.300781 279.449219 815.324219 281.476562 814.425781 282.300781 C 813.675781 283.050781 812.550781 283.425781 811.5 283.5 C 810.523438 283.5 809.324219 283.273438 808.574219 282.601562 C 807.601562 281.851562 806.398438 279.898438 806.476562 278.625 C 806.476562 277.273438 807.601562 275.398438 808.574219 274.574219 C 809.398438 273.898438 810.375 273.75 811.574219 273.75 C 813.375 273.75 815.925781 274.5 818.25 275.398438 C 821.101562 276.523438 823.648438 278.101562 827.25 280.273438 C 833.023438 283.875 844.273438 291.449219 849 295.5 C 851.550781 297.675781 852.75 299.175781 854.324219 301.199219 C 855.824219 303.074219 857.25 305.101562 858.300781 307.273438 C 859.351562 309.449219 860.25 311.851562 860.625 314.175781 C 860.925781 316.351562 860.851562 318.300781 860.398438 320.699219 C 859.800781 323.925781 858.074219 328.199219 856.574219 331.800781 C 855.074219 335.398438 853.726562 338.699219 851.398438 342.449219 C 848.550781 347.175781 844.050781 353.851562 840.148438 357.675781 C 837.074219 360.675781 833.476562 362.851562 830.550781 364.351562 C 828.300781 365.550781 826.5 366.226562 824.324219 366.601562 C 822.148438 366.976562 819.523438 366.824219 817.425781 366.601562 C 815.550781 366.449219 814.199219 366.375 812.175781 365.625 C 808.949219 364.5 803.773438 361.5 800.398438 359.175781 C 797.550781 357.148438 795.226562 355.125 793.050781 352.875 C 791.023438 350.851562 789.226562 348.675781 787.726562 346.351562 C 786.375 344.101562 785.175781 341.773438 784.5 339.300781 C 783.75 336.75 783.523438 334.648438 783.300781 331.125 C 783 324.976562 783.523438 312.601562 784.351562 305.175781 C 784.875 299.699219 785.851562 294.75 786.824219 290.851562 C 787.5 288.074219 788.023438 285.824219 789 283.800781 C 789.824219 282.074219 790.800781 280.5 792 279.375 C 793.199219 278.25 794.175781 277.5 796.125 276.976562 C 799.726562 276 807.226562 276.300781 812.625 276.675781 C 817.800781 277.125 824.851562 278.101562 827.773438 279.300781 C 829.125 279.898438 829.875 280.425781 830.398438 281.324219 C 830.925781 282.148438 831.226562 283.5 831.074219 284.550781 C 830.851562 285.523438 830.175781 286.726562 829.425781 287.398438 C 828.601562 288 826.273438 288.449219 826.273438 288.449219 "/></clipPath><clipPath id="5ea5abac07"><path d="M 820.261719 358.296875 L 874.996094 358.296875 L 874.996094 515.742188 L 820.261719 515.742188 Z M 820.261719 358.296875 "/></clipPath><clipPath id="13aaf011ea"><path d="M 830.398438 362.925781 C 830.699219 439.351562 827.851562 435.148438 828.074219 434.851562 C 828.375 434.550781 832.648438 436.800781 834.523438 438.375 C 836.476562 440.101562 837.449219 442.125 839.398438 445.050781 C 843 450.523438 848.476562 460.125 853.574219 469.199219 C 859.875 480.601562 872.023438 502.875 874.199219 508.5 C 874.800781 509.925781 875.101562 510.300781 874.949219 511.273438 C 874.800781 512.476562 873.675781 514.273438 872.699219 514.949219 C 871.949219 515.476562 870.824219 515.699219 869.851562 515.550781 C 868.726562 515.324219 866.925781 514.199219 866.324219 513.074219 C 865.800781 511.949219 865.800781 509.925781 866.398438 508.800781 C 867 507.675781 868.726562 506.550781 869.925781 506.476562 C 871.199219 506.324219 873.074219 507.226562 873.898438 508.050781 C 874.574219 508.800781 874.949219 509.851562 874.949219 510.824219 C 875.023438 511.726562 874.648438 512.851562 874.125 513.601562 C 873.601562 514.351562 872.699219 515.023438 871.800781 515.324219 C 870.976562 515.625 869.773438 515.625 868.875 515.324219 C 868.050781 515.023438 867.523438 514.648438 866.625 513.523438 C 863.023438 509.25 853.726562 487.949219 848.25 478.050781 C 844.273438 470.851562 840.898438 465.449219 837.300781 459.601562 C 834 454.199219 830.550781 447.300781 827.550781 444.375 C 825.898438 442.726562 823.648438 442.800781 822.75 441.449219 C 821.925781 440.25 822.300781 439.273438 822.074219 436.800781 C 821.398438 426.898438 819.226562 371.925781 821.398438 362.925781 C 821.851562 360.824219 822.375 360 823.351562 359.25 C 824.101562 358.574219 825.449219 358.351562 826.425781 358.5 C 827.398438 358.574219 828.601562 359.175781 829.273438 359.925781 C 829.949219 360.675781 830.398438 362.925781 830.398438 362.925781 "/></clipPath><clipPath id="155656d3a2"><path d="M 802.027344 436 L 829.222656 436 L 829.222656 515.535156 L 802.027344 515.535156 Z M 802.027344 436 "/></clipPath><clipPath id="062080ae45"><path d="M 829.125 440.699219 C 824.699219 470.101562 817.425781 498.675781 814.648438 506.324219 C 813.75 508.800781 813 511.125 812.398438 511.125 C 811.949219 511.125 811.425781 508.726562 811.273438 508.726562 C 811.050781 508.800781 811.800781 510.824219 811.5 511.800781 C 811.050781 512.925781 809.699219 514.648438 808.425781 515.101562 C 807.226562 515.550781 805.050781 515.25 804 514.5 C 802.949219 513.675781 801.976562 511.800781 802.050781 510.449219 C 802.050781 509.101562 803.175781 507.300781 804.300781 506.550781 C 805.425781 505.875 807.601562 505.800781 808.726562 506.25 C 809.699219 506.550781 810.601562 507.300781 810.976562 508.273438 C 811.5 509.398438 811.574219 511.574219 811.125 512.773438 C 810.75 513.675781 809.773438 514.5 808.949219 514.875 C 808.050781 515.324219 806.925781 515.550781 805.875 515.324219 C 804.675781 514.949219 802.800781 513.976562 802.425781 512.476562 C 801.675781 509.699219 805.800781 504.148438 807.601562 498.449219 C 810.300781 489.824219 814.199219 474 816.300781 465.300781 C 817.574219 459.675781 818.625 455.851562 819.300781 451.351562 C 819.898438 447.226562 819.449219 441.601562 820.425781 439.199219 C 820.875 437.925781 821.476562 437.175781 822.300781 436.648438 C 823.199219 436.125 824.476562 435.898438 825.449219 436.050781 C 826.425781 436.273438 827.550781 436.949219 828.148438 437.699219 C 828.824219 438.449219 829.125 440.699219 829.125 440.699219 "/></clipPath><clipPath id="fe2df5502b"><path d="M 823.269531 392 L 882.195312 392 L 882.195312 409.21875 L 823.269531 409.21875 Z M 823.269531 392 "/></clipPath><clipPath id="9383f1c07b"><path d="M 827.851562 399.898438 C 842.699219 399.675781 846.226562 399.375 850.800781 398.476562 C 857.023438 397.273438 867.375 393.074219 872.476562 392.398438 C 875.25 392.023438 877.199219 391.726562 878.851562 392.476562 C 880.199219 393.074219 881.550781 394.574219 881.925781 395.773438 C 882.300781 396.75 882.148438 397.949219 881.773438 398.851562 C 881.398438 399.75 880.726562 400.726562 879.824219 401.175781 C 878.699219 401.773438 876.449219 402 875.25 401.398438 C 874.050781 400.875 872.851562 399.074219 872.550781 397.800781 C 872.25 396.824219 872.550781 395.625 873 394.800781 C 873.449219 393.898438 874.273438 393 875.25 392.699219 C 876.449219 392.25 878.625 392.25 879.824219 392.925781 C 880.949219 393.601562 881.925781 395.550781 882.148438 396.824219 C 882.300781 397.800781 881.851562 398.925781 881.324219 399.75 C 880.726562 400.574219 879.976562 401.175781 878.851562 401.625 C 876.898438 402.375 873.074219 401.925781 870.226562 402.601562 C 867 403.273438 864.300781 404.851562 860.625 405.824219 C 855.898438 406.949219 849.601562 407.925781 844.125 408.449219 C 838.726562 408.976562 831.074219 409.5 827.851562 408.976562 C 826.425781 408.75 825.601562 408.523438 824.851562 407.851562 C 824.101562 407.175781 823.5 405.976562 823.351562 405 C 823.273438 403.949219 823.5 402.675781 824.101562 401.851562 C 824.851562 400.875 827.851562 399.898438 827.851562 399.898438 "/></clipPath><clipPath id="f3a876b0f7"><path d="M 769.011719 391.082031 L 833.144531 391.082031 L 833.144531 406.0625 L 769.011719 406.0625 Z M 769.011719 391.082031 "/></clipPath><clipPath id="705bb9b8d3"><path d="M 828.601562 406.050781 C 784.351562 406.050781 783.449219 405.898438 781.875 405.449219 C 780.226562 405.074219 778.800781 404.625 777.074219 403.648438 C 774.824219 402.449219 770.625 400.351562 769.574219 398.324219 C 768.898438 396.898438 768.976562 394.949219 769.574219 393.75 C 770.25 392.550781 772.199219 391.425781 773.398438 391.199219 C 774.449219 390.976562 775.648438 391.199219 776.476562 391.875 C 777.523438 392.625 778.800781 394.425781 778.875 395.773438 C 778.949219 397.125 777.976562 399.148438 776.925781 399.976562 C 775.800781 400.800781 773.625 401.023438 772.351562 400.726562 C 771.375 400.425781 770.398438 399.601562 769.875 398.773438 C 769.351562 397.949219 768.976562 396.75 769.050781 395.773438 C 769.125 394.800781 769.5 393.601562 770.175781 392.851562 C 771.074219 391.949219 773.175781 391.050781 774.449219 391.199219 C 775.800781 391.351562 776.699219 392.925781 778.273438 393.75 C 780.523438 394.875 782.773438 396.148438 786.824219 396.898438 C 795.523438 398.398438 824.101562 395.398438 829.726562 397.125 C 831.226562 397.648438 831.75 398.175781 832.351562 399 C 832.875 399.824219 833.25 401.101562 833.101562 402.074219 C 832.949219 403.050781 832.351562 404.25 831.601562 404.925781 C 830.851562 405.601562 828.601562 406.050781 828.601562 406.050781 "/></clipPath><clipPath id="af8402d412"><path d="M 823.050781 306 L 844.839844 306 L 844.839844 327.824219 L 823.050781 327.824219 Z M 823.050781 306 "/></clipPath><clipPath id="075385784c"><path d="M 843.375 314.023438 C 826.875 328.125 825.226562 327.226562 824.324219 326.25 C 823.5 325.273438 823.050781 323.175781 823.273438 321.898438 C 823.425781 320.925781 824.101562 319.949219 824.851562 319.351562 C 825.601562 318.75 826.648438 318.226562 827.699219 318.300781 C 828.898438 318.375 830.925781 319.273438 831.675781 320.25 C 832.351562 321 832.648438 322.199219 832.648438 323.101562 C 832.574219 324.074219 832.199219 325.273438 831.601562 326.023438 C 831 326.773438 829.949219 327.375 829.050781 327.675781 C 828.148438 327.898438 826.949219 327.824219 826.050781 327.449219 C 825.148438 327.074219 824.25 326.25 823.726562 325.425781 C 823.273438 324.601562 823.050781 323.398438 823.125 322.425781 C 823.273438 321.523438 823.800781 320.398438 824.476562 319.726562 C 825.148438 319.050781 827.101562 318.824219 827.175781 318.375 C 827.25 318 826.351562 317.851562 826.351562 317.398438 C 826.425781 315.75 834.523438 308.851562 837.148438 307.199219 C 838.351562 306.449219 839.175781 306 840.148438 306 C 841.199219 306 842.476562 306.375 843.226562 307.125 C 844.125 307.949219 844.875 309.898438 844.800781 311.101562 C 844.800781 312.148438 843.375 314.023438 843.375 314.023438 "/></clipPath><clipPath id="02a5cd0d68"><path d="M 817.078125 306.402344 L 846.484375 306.402344 L 846.484375 331.996094 L 817.078125 331.996094 Z M 817.078125 306.402344 "/></clipPath><clipPath id="3b241d001b"><path d="M 822.523438 306.449219 C 835.648438 312 844.273438 321.300781 845.851562 324.675781 C 846.523438 326.023438 846.523438 326.851562 846.300781 327.898438 C 846.074219 328.875 845.476562 330 844.726562 330.601562 C 843.976562 331.273438 842.773438 331.800781 841.800781 331.875 C 840.75 331.949219 839.550781 331.648438 838.726562 331.125 C 837.824219 330.523438 837 329.625 836.699219 328.574219 C 836.398438 327.375 836.550781 325.125 837.375 324 C 838.199219 322.875 840.148438 321.898438 841.574219 321.898438 C 842.925781 321.976562 844.875 323.101562 845.625 324.226562 C 846.375 325.425781 846.375 327.675781 846 328.875 C 845.625 329.925781 844.726562 330.75 843.824219 331.273438 C 842.925781 331.726562 841.726562 332.023438 840.675781 331.875 C 839.699219 331.726562 839.023438 331.273438 837.824219 330.449219 C 834.898438 328.199219 827.699219 318 824.175781 316.050781 C 822.523438 315.148438 820.949219 315.675781 819.898438 315.148438 C 819.148438 314.851562 818.625 314.476562 818.175781 313.875 C 817.648438 313.050781 817.125 311.699219 817.125 310.726562 C 817.125 309.976562 817.425781 309.226562 817.800781 308.625 C 818.101562 308.023438 818.625 307.425781 819.300781 307.050781 C 820.125 306.601562 822.523438 306.449219 822.523438 306.449219 "/></clipPath><clipPath id="df4807b046"><path d="M 792.039062 304.539062 L 812.558594 304.539062 L 812.558594 331.039062 L 792.039062 331.039062 Z M 792.039062 304.539062 "/></clipPath><clipPath id="fff0f8ab17"><path d="M 811.574219 312 C 803.25 322.199219 802.574219 325.875 801.523438 327.75 C 800.925781 328.875 800.476562 329.625 799.648438 330.226562 C 798.824219 330.75 797.699219 331.125 796.726562 330.976562 C 795.449219 330.824219 793.574219 329.699219 792.824219 328.648438 C 792.226562 327.824219 792.074219 326.625 792.148438 325.648438 C 792.300781 324.675781 792.75 323.550781 793.5 322.875 C 794.398438 321.976562 796.5 321.226562 797.773438 321.449219 C 799.125 321.675781 800.851562 322.949219 801.375 324.148438 C 801.898438 325.425781 801.824219 327.523438 801.074219 328.726562 C 800.398438 329.851562 798.449219 330.824219 797.25 330.976562 C 796.199219 331.125 795.074219 330.824219 794.25 330.148438 C 793.273438 329.398438 792.300781 327.75 792.148438 326.175781 C 791.925781 323.851562 793.351562 319.726562 794.476562 317.550781 C 795.300781 315.898438 796.199219 315.148438 797.476562 313.648438 C 799.425781 311.398438 803.25 306.824219 805.125 305.550781 C 805.949219 304.949219 806.324219 304.726562 807.148438 304.648438 C 808.050781 304.5 809.476562 304.800781 810.300781 305.25 C 810.976562 305.550781 811.5 306.148438 811.875 306.75 C 812.25 307.351562 812.550781 308.101562 812.550781 308.851562 C 812.550781 309.824219 811.574219 312 811.574219 312 "/></clipPath><clipPath id="e807727068"><path d="M 791.03125 299.757812 L 816.992188 299.757812 L 816.992188 333.046875 L 791.03125 333.046875 Z M 791.03125 299.757812 "/></clipPath><clipPath id="ddcef3601b"><path d="M 799.648438 301.949219 C 803.324219 306.898438 807.449219 309.523438 809.773438 312.300781 C 812.023438 315 814.273438 318.226562 815.476562 321.074219 C 816.449219 323.398438 816.976562 326.101562 816.898438 327.898438 C 816.824219 329.101562 816.523438 330.148438 816 330.898438 C 815.398438 331.726562 814.425781 332.550781 813.375 332.773438 C 812.101562 333.074219 809.851562 332.773438 808.800781 331.875 C 807.75 331.050781 807 328.949219 807 327.601562 C 807 326.550781 807.449219 325.425781 808.199219 324.75 C 809.175781 323.851562 811.273438 322.949219 812.625 323.101562 C 813.976562 323.324219 815.699219 324.75 816.375 325.800781 C 816.898438 326.773438 816.976562 327.976562 816.824219 328.949219 C 816.601562 329.925781 816 331.050781 815.25 331.726562 C 814.5 332.398438 813.300781 332.925781 812.324219 333 C 811.351562 333.074219 810.074219 332.773438 809.25 332.25 C 808.425781 331.648438 807.75 330.75 807.300781 329.773438 C 806.699219 328.5 806.925781 326.699219 806.398438 325.273438 C 805.949219 323.773438 805.050781 322.425781 804.226562 321.148438 C 803.398438 319.800781 802.648438 318.601562 801.375 317.175781 C 799.574219 315.074219 795.601562 312.300781 793.800781 309.976562 C 792.523438 308.25 791.324219 306.375 791.175781 304.875 C 791.023438 303.75 791.324219 302.550781 792.074219 301.726562 C 792.824219 300.75 794.625 299.773438 795.898438 299.773438 C 797.175781 299.851562 799.726562 301.949219 799.726562 301.949219 "/></clipPath><clipPath id="fd37816451"><path d="M 791.222656 334.566406 L 836.703125 334.566406 L 836.703125 345.179688 L 791.222656 345.179688 Z M 791.222656 334.566406 "/></clipPath><clipPath id="8c50497703"><path d="M 832.050781 345 C 793.125 344.476562 792.601562 344.023438 792.074219 343.125 C 791.476562 342 791.25 339.824219 791.625 338.625 C 791.925781 337.648438 792.75 336.824219 793.574219 336.300781 C 794.398438 335.773438 795.601562 335.550781 796.574219 335.625 C 797.550781 335.773438 798.675781 336.148438 799.351562 336.898438 C 800.175781 337.875 800.925781 339.976562 800.773438 341.175781 C 800.699219 342.226562 800.175781 343.273438 799.351562 343.875 C 798.375 344.699219 796.273438 345.300781 795 345.074219 C 794.023438 344.925781 793.050781 344.25 792.375 343.5 C 791.773438 342.75 791.324219 341.625 791.25 340.648438 C 791.25 339.675781 791.476562 338.550781 792.074219 337.726562 C 792.898438 336.75 793.949219 336.148438 796.050781 335.625 C 802.050781 334.125 828 334.273438 833.175781 335.925781 C 834.675781 336.449219 835.273438 336.976562 835.800781 337.800781 C 836.398438 338.625 836.773438 339.976562 836.625 340.949219 C 836.476562 342 835.875 343.199219 835.125 343.875 C 834.300781 344.550781 832.050781 345 832.050781 345 "/></clipPath></defs><g id="aa96fbec4c"><rect x="0" width="1440" y="0" height="809.999993" style="fill:#ffffff;fill-opacity:1;stroke:none;"/><g clip-rule="nonzero" clip-path="url(#ef7402a0a9)"><path style=" stroke:none;fill-rule:nonzero;fill:#000000;fill-opacity:1;" d="M 594.304688 591.910156 C 594.304688 591.722656 594.304688 591.347656 594.191406 591.3125 C 593.742188 591.238281 593.21875 591.085938 592.765625 591.238281 C 591.082031 591.800781 589.46875 591.3125 587.820312 591.125 C 586.84375 591.011719 585.832031 591.050781 584.820312 591.011719 C 583.355469 591.011719 581.859375 591.160156 580.433594 591.011719 C 578.558594 590.789062 576.683594 590.488281 574.808594 590.335938 C 574.433594 590.335938 574.058594 589.964844 573.722656 589.738281 C 572.972656 589.214844 572.183594 588.875 571.210938 588.953125 C 569.785156 589.0625 568.8125 588.464844 568.210938 587.152344 C 567.910156 586.515625 567.5 585.917969 567.085938 585.316406 C 566.597656 584.605469 566.148438 583.894531 564.988281 583.929688 C 563.898438 583.929688 563.1875 582.996094 562.738281 582.09375 C 561.800781 580.183594 560.675781 578.386719 560.75 576.0625 C 560.789062 574.488281 560 572.878906 559.589844 571.269531 C 559.101562 569.171875 557.9375 567.371094 556.925781 565.5 C 556.515625 564.710938 556.628906 563.925781 557.113281 563.324219 C 557.714844 562.613281 557.640625 561.941406 557.300781 561.152344 C 557.152344 560.816406 557.078125 560.476562 556.964844 560.140625 C 556.703125 559.28125 556.738281 558.53125 557.828125 558.003906 C 556.925781 558.042969 556.441406 557.855469 556.328125 556.992188 C 556.066406 555.234375 555.316406 553.511719 556.253906 551.636719 C 556.851562 550.476562 556.363281 549.125 555.953125 547.964844 C 555.351562 546.316406 555.464844 544.667969 555.425781 543.019531 C 555.425781 542.683594 555.691406 542.308594 555.839844 541.972656 C 555.914062 541.820312 556.027344 541.597656 555.988281 541.597656 C 554.789062 540.808594 556.027344 540.058594 555.839844 539.199219 C 556.476562 539.085938 556.964844 538.972656 557.902344 538.824219 C 557.226562 538.523438 556.890625 538.375 556.664062 538.261719 C 556.515625 537.738281 556.363281 537.25 556.253906 536.726562 C 556.066406 536.015625 555.238281 535.265625 556.253906 534.515625 C 556.253906 534.515625 556.328125 534.367188 556.289062 534.367188 C 555.050781 533.464844 556.363281 532.828125 556.515625 532.117188 C 556.964844 530.09375 557.453125 528.070312 557.863281 526.046875 C 557.9375 525.5625 557.640625 525.035156 557.488281 524.511719 C 557 523.050781 556.363281 521.628906 556.027344 520.128906 C 555.800781 519.042969 555.878906 517.882812 555.953125 516.757812 C 556.066406 515.296875 556.253906 513.835938 555.953125 512.335938 C 555.652344 510.835938 555.578125 509.265625 555.464844 507.726562 C 555.351562 506.453125 555.316406 505.179688 556.628906 504.394531 C 555.914062 502.59375 556.140625 500.835938 556.628906 499.109375 C 556.890625 498.285156 556.550781 497.761719 556.101562 497.164062 C 555.613281 496.527344 555.277344 495.964844 556.101562 495.175781 C 556.550781 494.765625 556.890625 493.566406 556.628906 493.152344 C 556.101562 492.328125 556.738281 491.132812 555.652344 490.53125 C 555.425781 490.417969 555.351562 489.746094 555.464844 489.40625 C 555.914062 487.535156 556.253906 485.660156 555.578125 483.789062 C 555.503906 483.636719 555.464844 483.375 555.578125 483.261719 C 556.289062 482.363281 555.839844 481.316406 556.066406 480.378906 C 556.515625 478.542969 556.214844 476.746094 556.101562 474.910156 C 556.066406 473.636719 556.066406 472.359375 556.027344 471.085938 C 556.027344 470.976562 556.027344 470.824219 556.027344 470.75 C 557 469.175781 556.628906 467.414062 556.777344 465.691406 C 556.925781 463.894531 557.488281 462.246094 556.589844 460.410156 C 556.214844 459.625 556.703125 458.425781 556.738281 457.414062 C 556.738281 456.738281 556.925781 455.914062 556.628906 455.351562 C 555.953125 454.039062 556.253906 452.878906 556.890625 451.792969 C 557.5625 450.59375 557.601562 449.46875 557.1875 448.195312 C 556.890625 447.183594 556.703125 446.097656 556.515625 445.050781 C 556.441406 444.710938 556.476562 444.226562 556.664062 444 C 557.527344 443.140625 557.152344 442.164062 557.152344 441.191406 C 557.152344 438.941406 556.8125 436.695312 557.5625 434.484375 C 557.789062 433.773438 557.414062 432.835938 557.300781 432.050781 C 557.113281 430.664062 557.339844 429.425781 558.6875 428.527344 C 558.464844 428.039062 558.277344 427.554688 558.050781 427.105469 C 557.414062 425.980469 557.226562 424.855469 557.488281 423.507812 C 557.789062 421.707031 557.640625 419.835938 557.640625 418 C 557.640625 416.839844 557.640625 415.675781 557.601562 414.476562 C 557.601562 414.367188 557.601562 414.179688 557.675781 414.140625 C 559.214844 413.015625 558.5 411.519531 558.203125 410.246094 C 557.5625 407.285156 557.902344 404.476562 558.578125 401.589844 C 558.765625 400.839844 558.875 400.015625 558.6875 399.304688 C 557.976562 396.832031 558.539062 394.359375 558.6875 391.925781 C 558.6875 391.398438 559.140625 390.835938 559.515625 390.386719 C 559.8125 390.050781 560.300781 389.828125 560.9375 389.414062 C 559.625 388.664062 559.25 387.914062 559.363281 386.902344 C 559.363281 386.640625 559.140625 386.378906 559.0625 386.117188 C 558.953125 385.628906 558.652344 385.066406 558.800781 384.617188 C 559.214844 383.382812 559.25 382.183594 559.101562 380.910156 C 558.988281 380.046875 559.140625 379.148438 559.25 378.289062 C 559.4375 376.414062 559.476562 374.503906 560.824219 373.003906 C 559.550781 371.695312 559.363281 370.980469 560.339844 369.484375 C 561.238281 368.132812 560.789062 366.933594 560.414062 365.625 C 560.375 365.472656 560.152344 365.285156 560.1875 365.175781 C 560.902344 363.488281 559.886719 361.617188 560.714844 359.929688 C 561.164062 358.992188 561.199219 358.054688 560.9375 357.007812 C 560.449219 355.023438 560.339844 353 561.011719 350.9375 C 561.238281 350.300781 560.863281 349.515625 560.9375 348.839844 C 561.164062 347.265625 561.574219 345.691406 561.839844 344.121094 C 561.949219 343.558594 561.988281 342.957031 561.914062 342.394531 C 561.726562 341.007812 561.386719 339.734375 561.6875 338.238281 C 561.949219 336.964844 561.652344 335.578125 562.25 334.265625 C 562.4375 333.816406 562.289062 333.21875 562.289062 332.691406 C 562.289062 331.644531 562.363281 330.59375 562.585938 329.546875 C 562.773438 328.683594 562.960938 327.671875 562.8125 326.660156 C 562.625 325.3125 562.699219 323.925781 562.664062 322.539062 C 562.664062 322.238281 562.511719 321.941406 562.4375 321.601562 C 562.402344 321.304688 562.214844 320.929688 562.363281 320.777344 C 563.113281 319.65625 562.699219 318.34375 563.074219 317.144531 C 563.226562 316.621094 563.148438 315.945312 563.039062 315.382812 C 562.585938 313.210938 562.585938 313.023438 564.164062 311.261719 C 563.898438 310.4375 563.636719 309.539062 563.335938 308.640625 C 563.039062 307.742188 563.1875 307.328125 564.050781 306.917969 C 564.273438 306.804688 564.5 306.765625 564.726562 306.691406 C 564.949219 306.578125 565.136719 306.46875 565.398438 306.316406 C 564.761719 304.742188 564.425781 303.207031 564.949219 301.484375 C 565.175781 300.660156 564.949219 299.535156 564.539062 298.710938 C 564.011719 297.664062 564.199219 296.765625 564.539062 295.789062 C 564.648438 295.527344 564.949219 295.265625 564.914062 295.003906 C 564.875 293.503906 564.613281 292.042969 565.398438 290.542969 C 565.925781 289.53125 565.847656 288.222656 566.074219 286.949219 C 564.949219 285.300781 564.949219 285.039062 566.449219 283.351562 C 566.035156 282.265625 565.886719 281.179688 566.675781 280.167969 C 566.824219 279.941406 567.050781 279.53125 566.9375 279.34375 C 566.261719 278.257812 566.9375 277.246094 566.972656 276.195312 C 566.972656 275.707031 567.3125 275.222656 567.5 274.734375 C 567.613281 274.398438 567.875 274.058594 567.800781 273.761719 C 567.460938 272.5625 568.210938 272 569.035156 271.4375 C 569.035156 270.3125 568.847656 269.226562 569.75 268.367188 C 569.898438 268.214844 569.824219 267.652344 569.75 267.355469 C 569.035156 265.179688 570.160156 263.269531 570.6875 261.320312 C 570.875 260.648438 571.171875 260.011719 571.433594 259.375 C 571.621094 258.960938 571.847656 258.511719 572.109375 258.136719 C 572.523438 257.425781 573.199219 256.863281 572.972656 255.890625 C 572.972656 255.777344 572.972656 255.628906 573.085938 255.550781 C 574.621094 254.429688 574.472656 252.441406 575.445312 251.09375 C 576.085938 250.269531 576.835938 249.519531 577.808594 248.398438 C 578.296875 246.449219 579.644531 244.6875 582.121094 243.640625 C 582.53125 241.953125 583.917969 240.980469 585.492188 240.15625 C 586.132812 239.816406 586.617188 239.332031 587.21875 238.917969 C 589.054688 237.71875 591.003906 236.746094 593.179688 236.222656 C 593.328125 236.183594 593.515625 236.109375 593.667969 235.996094 C 595.277344 234.609375 597.378906 234.386719 599.328125 233.859375 C 601.988281 233.148438 604.6875 232.472656 607.386719 232.285156 C 610.273438 232.0625 612.972656 230.902344 615.898438 230.824219 C 618.222656 230.75 620.546875 230.453125 622.871094 230.300781 C 624.035156 230.226562 625.195312 229.851562 626.394531 230.300781 C 626.808594 230.453125 627.445312 230.152344 627.933594 230 C 629.132812 229.589844 630.371094 229.363281 631.644531 229.738281 C 631.90625 229.8125 632.207031 229.851562 632.46875 229.8125 C 635.503906 229.175781 638.578125 228.878906 641.652344 228.878906 C 644.765625 228.878906 647.800781 228.242188 650.875 228.128906 C 655.226562 227.980469 659.535156 227.378906 663.886719 227.117188 C 665.949219 227.003906 667.972656 226.929688 670.035156 226.855469 C 670.445312 226.855469 670.859375 226.742188 671.269531 226.628906 C 673.144531 226.144531 675.09375 225.917969 677.042969 225.992188 C 677.15625 225.992188 677.269531 225.992188 677.417969 225.992188 C 680.082031 225.65625 682.742188 225.28125 685.40625 224.90625 C 685.628906 224.90625 685.890625 224.792969 686.117188 224.832031 C 688.816406 225.429688 691.367188 224.195312 694.027344 224.15625 C 695.265625 224.15625 696.464844 223.78125 697.703125 223.59375 C 698.039062 223.558594 698.449219 223.484375 698.75 223.59375 C 699.3125 223.820312 699.761719 223.78125 700.25 223.484375 C 700.664062 223.257812 701.148438 223.21875 701.636719 223.144531 C 704.335938 222.882812 707.074219 222.660156 709.773438 222.394531 C 712.359375 222.132812 714.984375 221.570312 717.570312 221.722656 C 719.445312 221.835938 721.132812 221.308594 722.933594 221.121094 C 724.355469 221.011719 725.78125 221.121094 727.207031 221.160156 C 727.503906 221.160156 727.84375 221.273438 728.066406 221.160156 C 730.242188 220.296875 732.492188 220.597656 734.742188 220.449219 C 736.765625 220.296875 738.789062 219.960938 740.851562 219.886719 C 742.539062 219.8125 744.152344 219.25 745.875 219.398438 C 747.675781 219.511719 749.511719 219.175781 751.347656 219.023438 C 753.597656 218.875 755.847656 218.761719 758.058594 218.613281 C 758.996094 218.539062 759.972656 218.425781 760.910156 218.386719 C 765.894531 218.125 770.882812 217.675781 775.867188 217.675781 C 778.191406 217.675781 780.515625 217.261719 782.804688 217.414062 C 785.425781 217.601562 788.050781 217.375 790.636719 217.339844 C 793.113281 217.339844 795.585938 217.1875 798.0625 217.339844 C 800.273438 217.414062 802.484375 217.714844 804.660156 218.011719 C 806.648438 218.273438 808.671875 218.460938 810.582031 219.023438 C 812.644531 219.625 814.59375 220.523438 816.507812 221.460938 C 817.707031 222.058594 818.269531 223.257812 818.34375 224.570312 C 818.417969 225.394531 818.71875 225.992188 819.355469 226.554688 C 819.992188 227.078125 820.367188 227.867188 820.894531 228.503906 C 821.34375 229.101562 821.867188 229.703125 822.28125 230.339844 C 822.617188 230.824219 822.917969 231.351562 823.105469 231.914062 C 823.480469 233.109375 823.816406 234.273438 824.640625 235.285156 C 825.316406 236.183594 825.730469 237.269531 826.253906 238.28125 C 826.328125 238.429688 826.480469 238.617188 826.441406 238.769531 C 826.066406 240.640625 827.304688 242.066406 827.867188 243.640625 C 828.316406 244.875 828.164062 245.660156 827.078125 246.484375 C 828.316406 247.796875 828.429688 249.257812 828.054688 250.945312 C 827.753906 252.253906 827.902344 253.679688 827.753906 255.066406 C 827.679688 255.816406 827.453125 256.527344 827.230469 257.613281 C 827.230469 257.613281 827.492188 258.0625 827.601562 258.511719 C 827.753906 259.113281 828.429688 259.898438 827.230469 260.199219 C 827.304688 261.808594 826.066406 263.234375 826.628906 264.882812 C 826.890625 265.59375 827.003906 266.378906 827.117188 267.167969 C 827.152344 267.578125 827.230469 268.066406 827.003906 268.367188 C 826.066406 269.75 826.140625 271.25 826.179688 272.785156 C 826.214844 274.097656 824.714844 274.171875 824.15625 275.335938 C 824.15625 275.820312 824.042969 276.570312 824.003906 277.355469 C 824.003906 279.980469 820.667969 281.664062 818.417969 280.09375 C 817.820312 279.679688 817.292969 279.417969 816.617188 279.828125 C 815.867188 280.242188 815.15625 279.90625 814.632812 279.457031 C 813.695312 278.59375 812.90625 277.621094 812.871094 276.234375 C 812.832031 274.433594 812.832031 272.675781 812.683594 270.875 C 812.644531 270.277344 812.421875 269.5625 812.046875 269.078125 C 810.695312 267.355469 810.207031 265.292969 809.496094 263.269531 C 808.894531 261.546875 809.609375 260.011719 809.347656 258.363281 C 809.269531 257.875 809.945312 257.277344 810.320312 256.5625 C 810.09375 256.113281 809.871094 255.589844 809.609375 255.027344 C 809.421875 254.617188 809.046875 254.203125 809.609375 253.753906 C 809.644531 253.753906 809.722656 253.640625 809.722656 253.640625 C 808.933594 252.179688 810.246094 250.90625 810.019531 249.445312 C 809.796875 248.058594 809.722656 246.636719 809.609375 245.210938 C 809.570312 244.539062 809.234375 243.75 810.132812 243.375 C 809.757812 240.941406 807.769531 240.230469 805.972656 239.40625 C 803.308594 238.207031 800.5 237.90625 797.613281 237.832031 C 796.710938 237.832031 795.847656 237.53125 794.949219 237.496094 C 792.175781 237.308594 789.402344 237.269531 786.628906 237.382812 C 784.941406 237.457031 783.179688 237.683594 781.492188 237.121094 C 781.226562 237.046875 780.816406 236.859375 780.628906 236.96875 C 778.640625 238.167969 776.316406 236.632812 774.332031 237.71875 C 772.605469 237.15625 770.882812 237.683594 769.195312 237.644531 C 767.246094 237.605469 765.257812 237.496094 763.308594 237.496094 C 762.484375 237.496094 761.660156 237.683594 760.796875 237.71875 C 757.273438 237.90625 753.785156 238.054688 750.261719 238.242188 C 744.339844 238.582031 738.453125 238.957031 732.527344 239.253906 C 730.917969 239.332031 729.304688 239.332031 727.691406 239.367188 C 727.054688 239.367188 726.417969 239.59375 725.78125 239.628906 C 723.195312 239.742188 720.570312 239.816406 717.984375 239.96875 C 716.222656 240.078125 714.421875 240.304688 712.660156 240.417969 C 711.648438 240.492188 710.597656 240.605469 709.621094 240.492188 C 708.6875 240.378906 707.859375 240.417969 707 240.828125 C 706.585938 241.015625 706.097656 241.128906 705.613281 241.167969 C 703.847656 241.351562 702.085938 241.539062 700.363281 241.691406 C 700.289062 241.691406 700.25 241.691406 700.175781 241.691406 C 697.0625 241.128906 694.101562 242.328125 691.027344 242.402344 C 688.253906 242.476562 685.441406 242.890625 682.667969 243.113281 C 680.53125 243.300781 678.394531 243.375 676.257812 243.527344 C 675.320312 243.601562 674.34375 243.75 673.40625 243.863281 C 673.070312 243.902344 672.65625 244.125 672.359375 244.011719 C 670.933594 243.5625 669.582031 243.9375 668.195312 244.164062 C 666.359375 244.425781 664.484375 244.835938 662.609375 244.238281 C 662.421875 244.164062 662.160156 244.3125 661.9375 244.351562 C 660.285156 244.574219 658.636719 244.875 656.988281 244.988281 C 655.335938 245.101562 653.726562 245.023438 652.039062 245.289062 C 650.238281 245.585938 648.363281 245.289062 646.566406 245.289062 C 645.816406 245.289062 645.027344 245.511719 644.277344 245.585938 C 642.929688 245.699219 641.542969 245.847656 640.191406 245.847656 C 639.515625 245.847656 638.84375 245.4375 638.015625 245.175781 C 637.304688 245.625 636.40625 245.773438 635.316406 245.773438 C 632.242188 245.773438 629.132812 246.074219 626.058594 246.296875 C 622.644531 246.5625 619.199219 247.085938 615.785156 247.085938 C 611.550781 247.121094 607.539062 248.023438 603.453125 248.921875 C 601.765625 249.296875 600.078125 249.632812 598.429688 250.082031 C 597.566406 250.308594 596.816406 250.832031 595.992188 251.207031 C 593.667969 252.253906 592.015625 254.203125 590.144531 255.851562 C 589.957031 256.039062 589.84375 256.339844 589.691406 256.601562 C 588.980469 257.761719 588.269531 258.925781 587.59375 260.085938 C 587.070312 261.023438 586.46875 261.921875 586.132812 262.894531 C 585.605469 264.46875 585.304688 266.15625 584.78125 267.730469 C 584.480469 268.628906 583.917969 269.414062 583.46875 270.277344 C 583.355469 270.464844 583.132812 270.6875 583.167969 270.875 C 583.46875 272.972656 582.15625 274.398438 581.257812 276.046875 C 580.957031 276.570312 581.109375 277.507812 581.296875 278.179688 C 581.671875 279.304688 581.933594 280.316406 581.371094 281.441406 C 581.144531 281.890625 581.40625 282.566406 581.484375 283.164062 C 581.59375 284.289062 581.371094 285.300781 580.019531 285.863281 C 581.40625 287.433594 580.507812 289.195312 580.84375 290.882812 C 580.921875 291.292969 580.582031 291.96875 580.246094 292.304688 C 578.671875 293.730469 579.046875 295.300781 579.796875 296.875 C 580.207031 297.738281 580.132812 298.300781 579.757812 299.160156 C 579.347656 300.0625 579.421875 301.222656 579.457031 302.234375 C 579.53125 303.65625 579.421875 304.929688 578.707031 306.316406 C 578.183594 307.328125 578.296875 308.753906 578.371094 309.953125 C 578.410156 311 579.082031 312.050781 579.007812 313.0625 C 578.859375 315.421875 579.382812 317.78125 579.121094 320.105469 C 578.859375 322.238281 578.746094 324.261719 578.972656 326.398438 C 579.160156 328.308594 579.234375 330.40625 578.410156 332.355469 C 578.257812 332.730469 578.410156 333.253906 578.410156 333.703125 C 578.332031 334.339844 578.222656 334.976562 578.109375 335.800781 C 578.183594 335.914062 578.558594 336.214844 578.558594 336.515625 C 578.671875 339.285156 578.707031 342.097656 578.785156 344.867188 C 578.785156 345.355469 578.859375 345.917969 578.671875 346.292969 C 577.808594 347.941406 577.882812 349.738281 578.183594 351.351562 C 578.632812 353.558594 578.144531 355.695312 578.332031 357.90625 C 578.445312 359.328125 577.921875 360.792969 577.808594 362.253906 C 577.695312 363.527344 577.808594 364.800781 577.808594 366.109375 C 577.808594 366.636719 578.035156 367.273438 577.808594 367.648438 C 577.207031 368.472656 577.359375 369.296875 577.433594 370.195312 C 577.507812 371.320312 577.472656 372.441406 577.285156 373.527344 C 577.171875 374.015625 576.570312 374.429688 576.085938 375.066406 C 577.433594 376.75 577.433594 378.660156 576.683594 380.683594 C 576.609375 380.871094 576.609375 381.171875 576.683594 381.398438 C 577.734375 383.90625 577.058594 386.453125 577.058594 389.003906 C 577.058594 389.300781 576.910156 389.640625 577.019531 389.902344 C 577.507812 391.210938 577.394531 392.300781 576.308594 393.308594 C 576.007812 393.609375 575.972656 394.320312 575.972656 394.847656 C 576.046875 396.496094 576.085938 398.144531 576.796875 399.679688 C 576.910156 399.902344 577.058594 400.128906 577.019531 400.355469 C 576.945312 401.851562 576.796875 403.386719 576.722656 404.886719 C 576.609375 406.761719 576.382812 408.597656 576.722656 410.507812 C 576.984375 411.929688 577.171875 413.390625 576.832031 414.925781 C 576.609375 416.050781 576.535156 417.214844 576.195312 418.335938 C 576.121094 418.597656 576.121094 418.972656 576.195312 419.199219 C 576.910156 420.882812 576.683594 422.71875 576.945312 424.480469 C 577.058594 425.191406 576.683594 425.941406 576.535156 426.691406 C 576.496094 426.953125 576.308594 427.328125 576.421875 427.515625 C 577.171875 428.675781 576.757812 429.988281 577.019531 431.1875 C 577.097656 431.5625 577.019531 432.011719 576.910156 432.421875 C 576.683594 433.585938 576.382812 434.710938 576.195312 435.871094 C 576.160156 436.171875 576.234375 436.582031 576.421875 436.882812 C 577.171875 438.042969 576.945312 439.28125 576.757812 440.515625 C 576.644531 441.191406 576.757812 441.902344 576.757812 442.578125 C 576.757812 442.914062 577.058594 443.363281 576.910156 443.625 C 576.007812 445.199219 577.019531 446.847656 576.644531 448.421875 C 576.535156 448.832031 576.460938 449.320312 576.644531 449.65625 C 577.472656 451.566406 576.683594 453.441406 576.535156 455.316406 C 576.496094 455.914062 576.007812 456.4375 575.632812 457.1875 C 576.007812 458.011719 576.609375 458.984375 576.796875 460.035156 C 576.984375 461.007812 576.796875 462.058594 576.535156 463.03125 C 576.195312 464.230469 576.121094 465.316406 576.460938 466.554688 C 576.871094 468.050781 576.308594 469.515625 575.898438 470.9375 C 575.671875 471.761719 575.597656 472.472656 575.972656 473.335938 C 576.308594 474.121094 576.273438 475.097656 576.160156 475.957031 C 576.046875 476.707031 576.085938 477.34375 576.347656 478.019531 C 576.757812 479.179688 577.097656 480.378906 576.609375 481.652344 C 576.496094 481.988281 576.609375 482.476562 576.609375 482.890625 C 576.683594 483.5625 576.722656 484.199219 576.121094 484.6875 C 575.410156 485.210938 575.523438 485.886719 575.820312 486.636719 C 576.160156 487.460938 576.382812 488.320312 576.683594 489.183594 C 576.945312 489.96875 576.796875 490.679688 576.609375 491.542969 C 576.308594 492.929688 576.496094 494.464844 576.796875 495.890625 C 576.945312 496.789062 577.132812 497.5 576.421875 498.175781 C 576.273438 498.324219 576.195312 498.585938 576.046875 498.773438 C 575.335938 499.671875 575.222656 500.570312 575.859375 501.546875 C 576.085938 501.882812 576.273438 502.257812 576.460938 502.632812 C 576.796875 503.269531 576.871094 503.867188 576.160156 504.355469 C 575.109375 505.03125 574.960938 506.117188 575.257812 507.203125 C 575.859375 509.300781 575.785156 511.585938 576.871094 513.574219 C 577.019531 513.835938 576.945312 514.320312 576.832031 514.582031 C 576.308594 515.707031 577.058594 517.019531 576.121094 518.179688 C 575.820312 518.554688 576.382812 519.640625 576.570312 520.390625 C 576.757812 521.175781 576.570312 521.816406 575.558594 521.964844 C 576.757812 525.671875 577.171875 529.308594 575.898438 532.941406 C 575.746094 532.941406 575.632812 532.941406 575.484375 532.941406 C 575.371094 532.566406 575.257812 532.191406 575.109375 531.78125 C 574.996094 531.929688 574.808594 532.078125 574.808594 532.191406 C 574.808594 532.902344 574.734375 533.617188 574.808594 534.289062 C 575.035156 535.527344 575.183594 536.726562 574.808594 538 C 574.660156 538.449219 575.148438 539.199219 575.523438 539.683594 C 576.046875 540.359375 576.308594 540.960938 575.785156 541.707031 C 577.359375 542.792969 577.433594 543.019531 576.609375 544.441406 C 576.085938 545.304688 576.121094 546.015625 576.609375 546.914062 C 577.734375 549.203125 578.070312 551.675781 577.507812 554.222656 C 577.394531 554.707031 577.507812 555.269531 577.507812 555.796875 C 577.507812 556.019531 577.660156 556.320312 577.546875 556.46875 C 576.722656 557.707031 577.285156 558.792969 577.769531 559.992188 C 578.144531 560.929688 578.257812 561.902344 577.882812 562.949219 C 577.621094 563.664062 577.769531 564.5625 577.695312 565.460938 C 580.394531 565.722656 582.757812 567.148438 585.382812 566.210938 C 585.644531 566.097656 585.980469 566.210938 586.28125 566.210938 C 588.15625 566.210938 590.066406 566.246094 591.941406 566.285156 C 592.65625 566.285156 593.328125 566.398438 594.042969 566.398438 C 595.054688 566.398438 596.027344 566.324219 597.039062 566.246094 C 597.640625 566.210938 598.203125 566.058594 598.804688 566.058594 C 603.113281 566.058594 607.425781 566.058594 611.738281 566.058594 C 611.8125 566.058594 611.847656 566.058594 611.925781 566.058594 C 614.585938 566.808594 617.359375 566.136719 620.058594 566.773438 C 620.734375 566.921875 621.484375 566.921875 622.195312 566.847656 C 624.109375 566.699219 625.832031 567.222656 627.519531 568.046875 C 629.355469 568.945312 630.183594 570.332031 629.996094 572.390625 C 629.917969 573.292969 629.695312 574.152344 629.542969 575.050781 C 629.355469 576.101562 629.542969 576.960938 630.257812 577.863281 C 631.417969 579.246094 632.054688 580.933594 632.167969 582.769531 C 632.167969 583.144531 632.132812 583.632812 631.90625 583.929688 C 631.121094 584.980469 630.292969 585.992188 629.433594 586.929688 C 629.09375 587.304688 628.605469 587.527344 628.15625 587.828125 C 628.121094 587.828125 628.046875 587.828125 628.007812 587.902344 C 626.207031 589.289062 623.957031 589.101562 621.933594 589.777344 C 621.746094 589.8125 621.558594 589.925781 621.410156 589.886719 C 619.273438 589.363281 617.398438 590.601562 615.335938 590.710938 C 613.125 590.824219 610.914062 590.972656 608.699219 591.050781 C 605.625 591.160156 602.550781 591.273438 599.476562 591.347656 C 598.652344 591.347656 597.789062 591.3125 597.003906 591.125 C 596.214844 590.972656 595.617188 591.160156 595.054688 591.722656 L 594.339844 591.722656 Z M 594.304688 591.910156 "/></g><g clip-rule="nonzero" clip-path="url(#5a0ba02279)"><path style=" stroke:none;fill-rule:nonzero;fill:#000000;fill-opacity:1;" d="M 830.265625 576.027344 C 829.664062 576.289062 829.441406 576.402344 828.953125 576.589844 C 829.328125 576.8125 829.554688 577.113281 829.816406 577.148438 C 831.128906 577.335938 831.539062 578.085938 830.828125 579.136719 C 830.304688 579.886719 829.441406 580.445312 829.402344 581.496094 C 829.402344 581.644531 829.179688 581.796875 829.027344 581.871094 C 827.902344 582.46875 826.742188 583.03125 825.617188 583.59375 C 825.355469 583.707031 824.980469 583.707031 824.792969 583.894531 C 823.78125 585.054688 822.355469 584.867188 821.117188 584.867188 C 818.417969 584.867188 815.792969 585.355469 813.132812 585.542969 C 809.984375 585.804688 806.871094 586.367188 803.683594 585.992188 C 802.109375 585.804688 800.460938 586.140625 798.886719 586.066406 C 795.625 585.917969 792.324219 585.65625 789.0625 585.355469 C 787.789062 585.242188 786.402344 585.617188 785.238281 584.792969 C 785.128906 584.71875 784.789062 584.90625 784.566406 584.941406 C 784.039062 585.019531 783.441406 585.203125 782.992188 585.054688 C 780.589844 584.269531 778.042969 584.941406 775.644531 584.082031 C 774.40625 583.632812 772.941406 583.96875 771.59375 583.78125 C 770.46875 583.632812 769.382812 583.070312 768.183594 583.519531 C 765.933594 582.507812 763.382812 582.996094 761.132812 582.09375 C 760.648438 581.90625 760.085938 581.347656 759.972656 580.859375 C 759.671875 579.546875 759.445312 578.160156 759.445312 576.8125 C 759.445312 575.425781 759.222656 574.304688 758.136719 573.292969 C 757.308594 572.542969 757.273438 571.378906 757.722656 570.480469 C 758.324219 569.28125 759.222656 568.382812 760.609375 567.785156 C 762.519531 566.996094 764.394531 566.996094 766.34375 566.921875 C 768.445312 566.808594 770.542969 566.324219 772.679688 565.984375 C 772.980469 565.949219 773.28125 565.875 773.582031 565.875 C 774.628906 565.875 775.679688 565.984375 776.765625 565.761719 C 777.554688 565.574219 778.453125 565.761719 779.355469 565.761719 C 780.777344 565.761719 782.128906 565.648438 783.554688 565.535156 C 786.027344 565.273438 788.539062 565.386719 791.050781 565.3125 C 792.550781 565.3125 794.011719 565.3125 795.511719 565.238281 C 798.472656 565.125 801.472656 564.972656 804.433594 564.824219 C 806.496094 564.710938 808.558594 564.5625 810.621094 564.488281 C 811.96875 564.449219 813.359375 564.488281 814.707031 564.488281 C 816.09375 564.488281 817.445312 564.414062 818.832031 564.5625 C 820.96875 564.75 823.105469 564.972656 825.167969 565.386719 C 825.730469 565.5 826.441406 566.210938 826.628906 566.808594 C 827.042969 568.082031 827.378906 569.46875 827.339844 570.820312 C 827.304688 572.28125 827.492188 573.367188 828.804688 574.191406 C 829.367188 574.566406 829.703125 575.238281 830.265625 575.914062 Z M 830.265625 576.027344 "/></g><path style=" stroke:none;fill-rule:nonzero;fill:#000000;fill-opacity:1;" d="M 660.324219 572.167969 C 660.585938 571.566406 660.773438 571.007812 661.074219 570.554688 C 661.335938 570.144531 661.75 569.730469 662.160156 569.46875 C 663.660156 568.496094 665.421875 568.421875 667.148438 568.308594 C 669.097656 568.160156 671.082031 568.121094 673.03125 568.046875 C 675.882812 567.933594 678.769531 567.785156 681.617188 567.710938 C 684.953125 567.632812 688.253906 567.484375 691.589844 567.523438 C 696.164062 567.597656 700.699219 567.785156 705.273438 567.972656 C 708.3125 568.121094 711.347656 568.347656 714.347656 568.535156 C 715.847656 568.644531 716.109375 568.871094 716.519531 570.367188 C 716.785156 571.269531 716.972656 572.242188 717.382812 573.066406 C 717.644531 573.589844 718.28125 573.964844 718.734375 574.414062 C 719.445312 575.164062 720.308594 575.875 720.832031 576.777344 C 721.394531 577.710938 721.246094 578.238281 720.308594 578.6875 C 719.40625 579.136719 718.996094 579.996094 718.359375 580.632812 C 717.496094 581.535156 716.632812 582.84375 714.984375 582.546875 C 714.609375 582.46875 714.195312 582.808594 713.820312 582.882812 C 713.484375 582.957031 713.109375 583.144531 712.808594 583.03125 C 709.996094 582.207031 707.1875 582.359375 704.335938 582.769531 C 703.289062 582.917969 702.199219 582.769531 701.148438 582.808594 C 699.011719 582.84375 696.875 582.996094 694.738281 582.957031 C 691.402344 582.882812 688.066406 582.730469 684.765625 582.546875 C 681.804688 582.359375 678.804688 582.132812 675.84375 581.90625 C 674.53125 581.796875 673.21875 581.683594 672.09375 580.933594 C 671.984375 580.859375 671.871094 580.785156 671.757812 580.785156 C 669.808594 581.195312 668.085938 580.257812 666.210938 579.996094 C 664.824219 579.808594 663.734375 579.210938 663.136719 577.636719 C 662.761719 576.699219 662.386719 575.765625 662.085938 574.753906 C 661.785156 573.777344 660.921875 572.992188 660.285156 572.128906 Z M 660.324219 572.167969 "/><g clip-rule="nonzero" clip-path="url(#8a52ac9cad)"><g clip-rule="nonzero" clip-path="url(#ee41e0d3fe)"><path style=" stroke:none;fill-rule:nonzero;fill:#000000;fill-opacity:1;" d="M 780.300781 270.75 L 863.625 270.75 L 863.625 369.699219 L 780.300781 369.699219 Z M 780.300781 270.75 "/></g></g><g clip-rule="nonzero" clip-path="url(#5ea5abac07)"><g clip-rule="nonzero" clip-path="url(#13aaf011ea)"><path style=" stroke:none;fill-rule:nonzero;fill:#000000;fill-opacity:1;" d="M 818.398438 355.5 L 878.023438 355.5 L 878.023438 518.535156 L 818.398438 518.535156 Z M 818.398438 355.5 "/></g></g><g clip-rule="nonzero" clip-path="url(#155656d3a2)"><g clip-rule="nonzero" clip-path="url(#062080ae45)"><path style=" stroke:none;fill-rule:nonzero;fill:#000000;fill-opacity:1;" d="M 799.050781 433.050781 L 832.199219 433.050781 L 832.199219 518.386719 L 799.050781 518.386719 Z M 799.050781 433.050781 "/></g></g><g clip-rule="nonzero" clip-path="url(#fe2df5502b)"><g clip-rule="nonzero" clip-path="url(#9383f1c07b)"><path style=" stroke:none;fill-rule:nonzero;fill:#000000;fill-opacity:1;" d="M 820.351562 389.398438 L 885.113281 389.398438 L 885.113281 412.050781 L 820.351562 412.050781 Z M 820.351562 389.398438 "/></g></g><g clip-rule="nonzero" clip-path="url(#f3a876b0f7)"><g clip-rule="nonzero" clip-path="url(#705bb9b8d3)"><path style=" stroke:none;fill-rule:nonzero;fill:#000000;fill-opacity:1;" d="M 766.050781 388.199219 L 836.191406 388.199219 L 836.191406 409.273438 L 766.050781 409.273438 Z M 766.050781 388.199219 "/></g></g><g clip-rule="nonzero" clip-path="url(#af8402d412)"><g clip-rule="nonzero" clip-path="url(#075385784c)"><path style=" stroke:none;fill-rule:nonzero;fill:#000000;fill-opacity:1;" d="M 820.125 303 L 847.875 303 L 847.875 330.75 L 820.125 330.75 Z M 820.125 303 "/></g></g><g clip-rule="nonzero" clip-path="url(#02a5cd0d68)"><g clip-rule="nonzero" clip-path="url(#3b241d001b)"><path style=" stroke:none;fill-rule:nonzero;fill:#000000;fill-opacity:1;" d="M 814.125 303.449219 L 849.316406 303.449219 L 849.316406 334.949219 L 814.125 334.949219 Z M 814.125 303.449219 "/></g></g><g clip-rule="nonzero" clip-path="url(#df4807b046)"><g clip-rule="nonzero" clip-path="url(#fff0f8ab17)"><path style=" stroke:none;fill-rule:nonzero;fill:#000000;fill-opacity:1;" d="M 789.148438 301.648438 L 815.550781 301.648438 L 815.550781 334.03125 L 789.148438 334.03125 Z M 789.148438 301.648438 "/></g></g><g clip-rule="nonzero" clip-path="url(#e807727068)"><g clip-rule="nonzero" clip-path="url(#ddcef3601b)"><path style=" stroke:none;fill-rule:nonzero;fill:#000000;fill-opacity:1;" d="M 788.175781 296.773438 L 819.976562 296.773438 L 819.976562 336.027344 L 788.175781 336.027344 Z M 788.175781 296.773438 "/></g></g><g clip-rule="nonzero" clip-path="url(#fd37816451)"><g clip-rule="nonzero" clip-path="url(#8c50497703)"><path style=" stroke:none;fill-rule:nonzero;fill:#000000;fill-opacity:1;" d="M 788.25 332.625 L 839.617188 332.625 L 839.617188 348.148438 L 788.25 348.148438 Z M 788.25 332.625 "/></g></g></g></svg>